<?xml version="1.0" encoding="UTF-8"?>
<svg width="14px" height="14px" viewBox="0 0 14 14" version="1.1" xmlns="http://www.w3.org/2000/svg" xmlns:xlink="http://www.w3.org/1999/xlink">
    <!-- Generator: Sketch 52.5 (67469) - http://www.bohemiancoding.com/sketch -->
    <title>cancel-music</title>
    <desc>Created with Sketch.</desc>
    <g id="Desktop" stroke="none" stroke-width="1" fill="none" fill-rule="evenodd">
        <g id="Home" transform="translate(-468.000000, -508.000000)" fill="#C1BFBF">
            <g id="Group-12" transform="translate(358.000000, 505.000000)">
                <g id="Group-8" transform="translate(110.000000, 0.000000)">
                    <g id="cancel-music" transform="translate(0.000000, 3.000000)">
                        <path d="M8.66387927,7.00003287 L13.6553938,2.00851246 C14.1148687,1.54903701 14.1148687,0.804082035 13.6553938,0.34467232 C13.1959189,-0.114803129 12.4510305,-0.114803129 11.9915556,0.34467232 L6.99997535,5.33625846 L2.00839507,0.344606586 C1.54892016,-0.114868862 0.804031791,-0.114868862 0.344556882,0.344606586 C-0.114852294,0.804082035 -0.114852294,1.54903701 0.344556882,2.00844672 L5.33613717,6.99996713 L0.344556882,11.9915533 C-0.114852294,12.4510287 -0.114852294,13.1959837 0.344556882,13.6553934 C0.804031791,14.1148689 1.54892016,14.1148689 2.00839507,13.6553934 L6.99997535,8.66380727 L11.9915556,13.6553934 C12.4509648,14.1148689 13.1959189,14.1148689 13.6553938,13.6553934 C14.1148687,13.195918 14.1148687,12.4510287 13.6553938,11.9915533 L8.66387927,7.00003287 Z" id="Path"></path>
                    </g>
                </g>
            </g>
        </g>
    </g>
</svg>